<svg width="250" height="83" viewBox="0 0 250 83" fill="none" xmlns="http://www.w3.org/2000/svg">
<path d="M63.4737 70.2063V82.7696C62.1593 82.7696 60.9301 82.7885 59.6242 82.7507C59.5534 81.3519 59.596 79.9797 59.5895 78.6086C59.582 77.2114 59.5794 75.8143 59.5816 74.4171C59.5816 73.0397 59.5816 71.6623 59.5816 70.3006C59.0917 70.1697 57.981 70.1435 57.1198 70.2482C57.0851 71.0635 57.0956 71.895 57.0936 72.7264C57.091 73.5476 57.0888 74.3684 57.0871 75.1889C57.0871 76.0272 57.0849 76.8655 57.0805 77.7037C57.0805 78.5242 57.0792 79.345 57.0766 80.1662C57.0766 81.0003 57.0766 81.8349 57.0766 82.7261C55.7582 82.7843 54.5067 82.7617 53.1746 82.7434C53.151 78.5604 53.1275 74.4129 53.1039 70.2304H50.8032C50.6925 74.3888 50.7534 78.5378 50.7135 82.6737C50.2092 82.7937 47.8168 82.823 46.82 82.7214C46.8102 78.5708 46.8534 74.4093 46.7899 70.2221H44.8815C44.7846 74.3983 44.8664 78.5457 44.8127 82.7314H40.9894C40.9737 78.5667 40.9579 74.4203 40.9422 70.2315H38.6278C38.5845 70.9173 38.6068 71.6089 38.6029 72.2989C38.5983 72.98 38.5996 73.6611 38.5996 74.3422C38.5996 75.0408 38.5996 75.7394 38.5996 76.4379C38.5996 77.1365 38.5996 77.8351 38.5996 78.5336C38.5996 79.2147 38.5983 79.8959 38.5957 80.577C38.5957 81.2733 38.5957 81.9696 38.5957 82.6507C38.0986 82.7843 35.606 82.8147 34.7134 82.6994C34.6846 78.5656 34.6551 74.4213 34.6256 70.2006C33.7087 70.177 32.8724 70.1833 31.9562 70.2006C31.8599 74.392 31.947 78.5378 31.8756 82.7366C30.5835 82.7947 29.3359 82.7775 27.9933 82.7439V70.2221H25.3665C25.3449 70.4374 25.3062 70.6538 25.3049 70.8707C25.2923 74.5906 25.2822 78.3104 25.2748 82.0303V82.7303H21.4023C21.3899 82.515 21.3676 82.2949 21.3663 82.0749C21.3532 78.4074 21.3419 74.7399 21.3323 71.0724C21.3323 70.7984 21.3323 70.5238 21.3323 70.2048C20.53 70.1728 19.8168 70.1351 19.1056 70.1183C18.5579 70.1062 18.0232 69.9819 17.5528 69.7573C16.3228 69.181 15.666 68.3129 15.5979 67.1943C15.5324 66.1134 15.5651 65.0294 15.554 63.9459C15.554 63.8066 15.5442 63.6667 15.5396 63.5268C15.5324 63.3172 15.3942 63.2056 15.1335 63.1967C14.9371 63.1897 14.7406 63.1864 14.5441 63.1867L0.660024 63.1805C0.487128 63.1805 0.314232 63.1689 0.149194 63.1632C-0.00929391 62.7734 -0.0544827 60.947 0.0771542 60.0903C5.18545 60.0903 10.3036 60.137 15.5114 60.0631C15.5769 59.3448 15.5448 58.6904 15.5481 57.9621C14.5002 57.9097 13.4825 57.949 12.47 57.9438C11.4444 57.9391 10.4182 57.9438 9.39194 57.9438H6.24837H3.17029H0.0634011V54.8002H0.770704C5.39873 54.795 10.0268 54.7889 14.6548 54.7819C14.9305 54.7819 15.2069 54.7447 15.5468 54.7201C15.5468 54.1542 15.554 53.6355 15.5468 53.1163C15.5429 52.9324 15.3883 52.835 15.1623 52.8245C14.9659 52.8151 14.7694 52.8135 14.5729 52.8135L0.819822 52.8025H0.0634011V49.7291C5.20313 49.693 10.3219 49.7658 15.4407 49.6647C15.626 49.2031 15.5664 48.785 15.5022 48.3748C15.4872 48.2799 15.2986 48.1594 15.163 48.1296C14.9587 48.0845 14.7301 48.1044 14.512 48.1044C9.97131 48.0985 5.43061 48.0936 0.889897 48.0898H0.0634011V45.0358C5.1717 45.0106 10.2721 45.0945 15.3372 44.9834C15.5566 44.5643 15.6038 43.869 15.478 43.081C15.1768 43.0663 14.8598 43.0381 14.5421 43.0381C10.0014 43.0381 5.46073 43.0405 0.920023 43.0454H0.0634011C-0.0295961 42.5215 0.0286909 42.019 0.0208319 41.5213C0.012973 41.033 0.0208319 40.5447 0.0208319 39.983C2.6241 39.9306 5.18938 39.9867 7.75401 39.972C10.3049 39.9574 12.8558 39.9485 15.4911 39.9369C15.5566 39.2464 15.571 38.6177 15.4721 37.9292H0.0634011V34.803C5.1992 34.7783 10.3154 34.8643 15.4669 34.7595V32.6884H0.0588167V29.5563H1.02874C5.56945 29.5476 10.1102 29.5382 14.6509 29.5281C14.9056 29.5281 15.161 29.505 15.4551 29.4903V27.5586C12.8728 27.4847 10.3291 27.5141 7.78675 27.513C5.24439 27.512 2.68631 27.513 0.0692953 27.513C-0.0459689 26.4715 0.0208319 25.4708 0.0175574 24.3993H0.761535C5.30224 24.3951 9.84295 24.3902 14.3837 24.3847C14.7268 24.3847 15.07 24.3532 15.4538 24.3323V22.5189C15.1643 22.5011 14.8689 22.4665 14.5736 22.4665C9.96738 22.4582 5.36119 22.4526 0.754986 22.4498H0.0634011V19.3853H15.4898C15.5147 19.1758 15.5455 19.0259 15.5474 18.8766C15.5599 17.8811 15.5586 16.8857 15.5763 15.8902C15.6051 14.2969 16.6961 13.1616 18.5967 12.7466C18.8285 12.6997 19.0668 12.6759 19.306 12.6759C20.1351 12.6644 20.9648 12.6675 21.7946 12.6612C22.0291 12.6612 22.2629 12.6445 22.5805 12.6319V0.0523928H26.5152C26.5257 4.24382 26.5362 8.40695 26.5466 12.6136H29.2829C29.3359 11.5448 29.2992 10.5037 29.3051 9.46423C29.311 8.41638 29.3051 7.36852 29.3051 6.32067V0.0476774H33.1121C33.1285 0.280301 33.1586 0.519212 33.1593 0.752884C33.1667 4.49024 33.1724 8.22759 33.1763 11.9649C33.1763 12.1703 33.2077 12.3752 33.2293 12.6377C34.1357 12.6581 34.9917 12.6701 35.9302 12.6073V0.122599C36.4679 -0.00681107 38.8996 -0.0403425 39.7909 0.0612996C39.8387 4.21395 39.8164 8.37813 39.8158 12.6047C40.6062 12.6995 41.3568 12.6502 42.1865 12.6309C42.2121 12.372 42.252 12.1373 42.252 11.9026C42.252 8.14813 42.2507 4.39331 42.2481 0.638144V0.0382467H46.0813C46.0944 0.28816 46.118 0.526024 46.1186 0.763363C46.1221 4.46579 46.1245 8.16821 46.1258 11.8706C46.1258 12.1095 46.1586 12.3479 46.1789 12.6188H48.101C48.2229 11.5489 48.139 10.5074 48.1534 9.46895C48.1672 8.42109 48.1534 7.37324 48.1534 6.32538C48.1534 5.29464 48.1534 4.26425 48.1534 3.23421V0.0550124H51.9774C52.0482 1.09029 51.9971 2.13081 52.0069 3.16976C52.0167 4.21762 52.0069 5.26547 52.0069 6.31333C52.0069 7.34337 52.0069 8.37376 52.0069 9.4045V12.6047C52.8039 12.6785 53.5276 12.6539 54.3325 12.6193V0.0450578H58.2495C58.2659 0.212715 58.2973 0.396613 58.298 0.579988C58.3111 4.31734 58.322 8.05469 58.3307 11.792C58.3307 12.0493 58.3307 12.3065 58.3307 12.6041H60.8279C60.8751 11.1895 60.8606 9.79745 60.8633 8.40799C60.8659 7.02832 60.8659 5.64864 60.8633 4.26896V0.0398185H64.6676C64.6775 0.261964 64.6958 0.482538 64.6965 0.702587C64.7069 4.40501 64.717 8.10743 64.7266 11.8099C64.7266 12.0671 64.7574 12.3238 64.7757 12.6162H67.4412C67.4602 11.5479 67.4517 10.5079 67.4523 9.46842C67.4523 8.42057 67.4523 7.37271 67.4523 6.32486C67.4523 5.29482 67.4523 4.26442 67.4523 3.23368V0.0241007C68.7824 -0.0104786 70.0333 0.0167657 71.3543 0C71.3739 0.245722 71.4047 0.44691 71.4047 0.648623C71.4099 4.36851 71.4128 8.0884 71.4132 11.8083V12.6209C72.2275 12.6697 73.0453 12.6651 73.8587 12.6073V0.0183375C75.1573 -0.00366749 76.4089 -0.000523927 77.7547 0.0130982C77.7947 1.08925 77.7665 2.13134 77.7717 3.17186C77.777 4.21238 77.7717 5.26757 77.7717 6.31543C77.7717 7.34617 77.7717 8.37656 77.7717 9.4066V12.6078C78.5511 12.6853 79.278 12.657 80.0764 12.6193V0.0440099H84.0117C84.0582 2.13972 84.0477 4.23019 84.051 6.32067C84.0549 8.39699 84.051 10.4728 84.051 12.6157C84.8199 12.6838 85.5481 12.6586 86.3589 12.6392C86.3773 12.3988 86.4087 12.1808 86.4093 11.9628C86.4093 8.26042 86.4093 4.558 86.4093 0.855574V0.0110025C87.7532 0.0162418 89.025 -0.0172896 90.3709 0.0550124V12.6204C90.6099 12.6387 90.7782 12.6618 90.9472 12.6628C91.7108 12.667 92.4758 12.6796 93.2394 12.6628C95.0587 12.6235 96.6338 13.686 97.0817 14.9115C97.161 15.1288 97.2035 15.3537 97.2081 15.58C97.2291 16.7327 97.2391 17.8853 97.2383 19.038C97.2383 20.3824 97.2147 21.7273 97.2055 23.0722C97.2055 23.2619 97.2265 23.451 97.2409 23.6952C97.5958 23.7125 97.9148 23.7418 98.2331 23.7418C112.488 23.7418 126.743 23.7418 140.999 23.7418C171.561 23.7386 202.124 23.735 232.686 23.7308C238.209 23.7308 243.732 23.7233 249.255 23.7083H249.987C250.052 23.976 249.859 24.1374 249.737 24.3061C249.044 25.2559 248.336 26.199 247.638 27.1458C246.661 28.4681 245.685 29.7911 244.712 31.1145C244.623 31.235 244.515 31.3482 244.443 31.4739C244.26 31.7883 243.962 31.8642 243.542 31.8632C240.094 31.8532 236.644 31.8632 233.195 31.8632L104.44 31.87C102.388 31.87 100.336 31.8794 98.2835 31.8883C97.9822 31.8883 97.681 31.914 97.3214 31.9297C97.3018 32.2352 97.2684 32.5092 97.2677 32.7832C97.2573 36.2233 97.2498 39.6638 97.2455 43.1046C97.2407 46.1958 97.2391 49.2869 97.2409 52.3781C97.2409 52.6186 97.2658 52.8591 97.2828 53.1525C97.6921 53.1671 98.0556 53.1907 98.4191 53.1912C105.383 53.2038 112.347 53.2145 119.311 53.2232C156.269 53.2232 193.227 53.2215 230.187 53.218H231.833C231.751 53.3977 231.711 53.5281 231.636 53.6444C229.954 56.2688 228.261 58.8895 226.593 61.5191C226.397 61.8287 226.142 61.9602 225.729 61.9613C224.987 61.9613 224.245 61.9849 223.502 61.9849C200.275 61.9849 177.047 61.9859 153.82 61.988C135.374 61.9918 116.927 62.0002 98.48 62.0131H97.3175C97.2966 62.2531 97.2677 62.4375 97.2664 62.6225C97.2546 63.9496 97.2507 65.2772 97.2376 66.6043C97.2438 66.8844 97.2259 67.1645 97.1839 67.4426C96.9547 68.6953 96.0431 69.5299 94.6154 70.0099C94.3259 70.1073 93.9742 70.1073 93.6494 70.1146C92.4496 70.1393 91.2491 70.1487 90.0474 70.1623C89.7677 70.1655 89.4881 70.1623 89.1167 70.1623C89.0512 74.382 89.1266 78.5321 89.0774 82.6701C88.6092 82.7942 86.2404 82.8272 85.186 82.7266C85.1015 78.5876 85.2246 74.4407 85.1473 70.2414C84.3778 70.1367 83.6463 70.2215 82.8342 70.1791C82.7471 70.8047 82.7883 71.393 82.7766 71.9782C82.7641 72.5719 82.768 73.1655 82.7654 73.7596C82.7628 74.3537 82.7608 74.9473 82.7589 75.541C82.7569 76.1346 82.7589 76.7287 82.7589 77.3223C82.7589 77.9159 82.7589 78.5101 82.7589 79.1037C82.7589 79.6973 82.7589 80.2914 82.7589 80.885C82.7589 81.4786 82.7589 82.0707 82.7589 82.6512C82.2821 82.7937 80.0626 82.8309 78.9525 82.7162C78.8949 82.1456 78.9263 81.5588 78.9185 80.9736C78.91 80.38 78.9146 79.7864 78.9139 79.1922C78.9132 78.5981 78.9139 78.005 78.9093 77.4109C78.9047 76.8167 78.9028 76.2236 78.8975 75.6295C78.8923 75.0354 78.8844 74.4423 78.8792 73.8482C78.8739 73.254 78.8713 72.6604 78.87 72.0668C78.8687 71.4732 78.87 70.8817 78.87 70.2383C78.092 70.1419 77.3637 70.2189 76.5477 70.1786C76.4462 74.381 76.5136 78.53 76.473 82.7329C75.1796 82.8068 73.9294 82.7722 72.5953 82.7528V70.231H70.1787C70.1564 70.4405 70.1132 70.6569 70.1132 70.8738C70.0979 74.6112 70.0864 78.3485 70.0785 82.0859C70.0785 82.2892 70.0785 82.493 70.0785 82.7319H66.2879C66.1746 81.684 66.2342 80.6435 66.2224 79.6056C66.2106 78.5677 66.2178 77.545 66.2132 76.5144C66.208 75.4666 66.1949 74.4187 66.191 73.3709C66.1864 72.3429 66.191 71.315 66.191 70.2168C65.2649 70.1744 64.4351 70.1869 63.4737 70.2063ZM56.3968 15.1227V15.1295H51.2885C40.8318 15.1295 30.375 15.1263 19.9183 15.12C19.1265 15.12 18.674 15.4538 18.6917 16.0767C18.7395 18.032 18.7113 19.9884 18.7106 21.9447C18.7067 35.8113 18.703 49.678 18.6995 63.5446C18.6995 64.6799 18.6995 65.8153 18.7126 66.9501C18.7179 67.4479 19.0034 67.6737 19.6295 67.7056C19.8037 67.7145 19.9792 67.7093 20.1534 67.7098C21.6813 67.7124 23.2099 67.7171 24.7378 67.7166L92.7174 67.6972C92.8916 67.6972 93.0678 67.7035 93.2414 67.691C93.779 67.6517 94.1117 67.3766 94.1399 66.9454C94.1491 66.806 94.1445 66.6662 94.1399 66.5263C94.1209 63.3481 94.0836 60.17 94.0849 56.9908C94.0901 43.3337 94.1019 29.6767 94.1202 16.0196C94.1202 15.4396 93.7928 15.1567 93.0685 15.1289C92.7855 15.1185 92.5013 15.1206 92.2171 15.1206L56.3968 15.1227ZM89.0074 1.14478C88.5941 1.04 88.2215 1.02952 87.8285 1.13797V12.0828C88.2627 12.1431 88.64 12.1955 89.0074 12.0383V1.14478ZM70.0359 1.1123H68.8571C68.7169 1.697 68.7412 11.6784 68.8754 12.0786H70.0327L70.0359 1.1123ZM76.4167 12.1027C76.5516 11.1927 76.496 1.50577 76.3578 1.10025H75.2955C75.2675 1.18038 75.2478 1.26221 75.2366 1.34492C75.2309 4.80285 75.2276 8.2592 75.2267 11.714C75.2333 11.8176 75.2493 11.9208 75.2746 12.0226C75.2816 12.0392 75.2943 12.0539 75.3112 12.065C75.3289 12.0789 75.3477 12.0919 75.3676 12.1038L76.4167 12.1027ZM25.0967 1.10863H24.001V12.0818H25.1464C25.3082 11.4316 25.2624 1.56497 25.0967 1.10863ZM37.3625 1.08767C37.1771 1.60427 37.1555 11.5987 37.335 12.0902C37.707 12.1426 38.0848 12.1923 38.4483 12.0409C38.6003 11.1052 38.5322 1.50996 38.3632 1.09082L37.3625 1.08767ZM81.5172 1.08767C81.3816 1.94954 81.4517 11.6799 81.5892 12.0902H82.6953C82.7111 11.824 82.7346 11.6019 82.7346 11.3802C82.7373 9.30478 82.7373 7.22968 82.7346 5.15493C82.7346 4.02184 82.7268 2.88841 82.7111 1.75463C82.7111 1.53668 82.6639 1.31925 82.6371 1.08767H81.5172ZM15.0438 41.0366C14.8074 41.0194 14.6345 40.9963 14.4616 40.9963C10.2933 40.9865 6.12481 40.979 1.95609 40.9738C1.40924 40.9738 1.32476 41.0508 1.32017 41.4977C1.32017 41.6481 1.36078 41.7984 1.39221 42.0064H2.27569C4.76434 42.0064 7.253 42.0064 9.74166 42.0064C11.3134 42.0064 12.8852 42.0012 14.457 41.9865C15.0366 41.9813 15.1499 41.877 15.1362 41.428C15.1296 41.3149 15.0805 41.198 15.0418 41.0382L15.0438 41.0366ZM68.6809 81.7238C68.8466 80.9416 68.787 71.1405 68.6213 70.7266H67.5597C67.5316 70.9445 67.4864 71.1311 67.4857 71.3181C67.4818 74.6171 67.4818 77.9165 67.4857 81.2161C67.4857 81.3807 67.5309 81.5457 67.5571 81.7238H68.6809ZM15.0975 61.2246C14.2795 61.0853 1.97508 61.0842 1.37126 61.2246V62.1284C5.97462 62.1075 10.5197 62.1515 15.0975 62.0991V61.2246ZM55.8787 1.07772C55.7144 1.67762 55.7248 11.6464 55.8787 12.0902H56.9921C57.0111 11.8806 57.0406 11.7103 57.0406 11.54C57.0379 8.24034 57.0323 4.94099 57.0235 1.64199C57.0235 1.45914 56.9796 1.27524 56.958 1.07772H55.8787ZM36.035 70.7151C35.8601 71.3778 35.8804 81.2717 36.0513 81.7238H37.0992C37.2551 81.1124 37.223 71.1588 37.0652 70.7151H36.035ZM15.0694 30.6047H1.45901C1.28481 30.9337 1.26254 31.2334 1.404 31.5274C2.17483 31.6652 14.2605 31.6321 15.0694 31.4849V30.6047ZM15.051 35.9137C14.7556 35.899 14.5002 35.876 14.2442 35.8754C10.2147 35.8632 6.18484 35.8531 2.15453 35.845C1.34506 35.845 1.25796 35.9215 1.3241 36.5717C1.33393 36.6687 1.39811 36.7619 1.43282 36.8457C2.65946 36.9767 14.5101 36.905 15.051 36.7583V35.9137ZM80.2643 70.7303C80.2447 70.9325 80.2145 71.1017 80.2139 71.2715C80.1986 74.5858 80.1868 77.9 80.1785 81.2141C80.1785 81.3801 80.2211 81.5467 80.244 81.7322H81.3148C81.5113 81.2209 81.5054 71.272 81.3148 70.7297L80.2643 70.7303ZM55.6692 81.6804C55.8506 80.9505 55.772 71.2112 55.5762 70.7303H54.5283C54.5106 71.0216 54.4812 71.2783 54.4805 71.535C54.4727 74.6918 54.4674 77.8485 54.4648 81.005C54.4648 81.782 54.5447 81.8375 55.5185 81.7322C55.571 81.7195 55.6215 81.7021 55.6692 81.6804ZM23.9021 70.7303H22.7528C22.6755 74.4109 22.6663 78.049 22.7056 81.6987H23.9021V70.7303ZM62.0447 81.716C62.2477 81.1229 62.1757 71.1672 61.9792 70.735H60.9314C60.894 74.4072 60.9039 78.0412 60.9163 81.716H62.0447ZM15.0838 50.8524C14.1924 50.7445 1.82052 50.7691 1.3575 50.8839V51.7641C1.71115 51.7814 2.01241 51.8086 2.31367 51.8091C5.78338 51.8154 9.2531 51.8187 12.7228 51.8191C13.3122 51.8191 13.9016 51.8138 14.4911 51.7981C15.0916 51.7824 15.1741 51.7101 15.1558 51.2443C15.1416 51.1127 15.1175 50.9818 15.0838 50.8524ZM30.5167 70.7135H29.4492C29.2737 71.3317 29.3005 81.3021 29.4689 81.7066H30.556C30.5992 78.0406 30.5776 74.4219 30.5167 70.7135ZM15.0975 55.8811C14.0195 55.7449 1.92465 55.7637 1.35685 55.9062V56.7414C2.16501 56.8891 14.4871 56.865 15.0975 56.7194V55.8811ZM31.7316 12.1027V1.10916H30.6903C30.5534 1.99983 30.6143 11.7475 30.7492 12.1012L31.7316 12.1027ZM44.6523 12.1216C44.8245 11.5275 44.7951 1.56235 44.6307 1.10863H43.5894V4.81385C43.5894 6.0346 43.5795 7.25588 43.5946 8.47663C43.6097 9.68638 43.5291 10.8993 43.6359 12.12L44.6523 12.1216ZM62.2615 1.09553V12.098H63.2904C63.441 11.4001 63.4082 1.46228 63.2445 1.05624C63.048 1.05624 62.8339 1.05257 62.6191 1.05624C62.5149 1.05781 62.4108 1.07824 62.2615 1.09553ZM1.37322 47.0555C5.95759 47.0555 10.5014 47.0702 15.0477 47.0351C15.146 46.6746 15.2206 46.3907 15.0156 46.0999H1.37322V47.0555ZM86.6425 70.7187C86.4814 71.2689 86.4722 81.2733 86.632 81.7155H87.6799C87.8416 81.004 87.8017 71.1782 87.6301 70.7187H86.6425ZM1.38632 26.3536H15.07V25.4765H1.38632V26.3536ZM49.2962 81.727C49.4646 80.9002 49.4069 71.1562 49.2308 70.7177H48.3073C48.1344 71.2599 48.1423 81.301 48.3126 81.727H49.2962ZM74.0571 70.7245C73.8875 71.5958 73.9104 81.279 74.0748 81.7113H75.1226C75.3001 80.9086 75.2215 71.1667 75.0316 70.7245H74.0571ZM1.37322 21.4108C2.04843 21.4108 2.65553 21.4108 3.26329 21.4108C6.9906 21.4 10.7181 21.3876 14.4459 21.3736C15.0648 21.371 15.1335 21.3045 15.087 20.8303C15.0759 20.7151 15.0215 20.6024 14.9796 20.4505H1.37322V21.4108ZM42.3837 70.7234V81.7155H43.5009C43.5252 78.0302 43.5245 74.3841 43.4584 70.7234H42.3837ZM49.5183 1.09606C49.4993 1.26895 49.4685 1.42037 49.4685 1.57231C49.4685 4.95653 49.4707 8.34076 49.475 11.725C49.475 11.8549 49.5222 11.9869 49.5517 12.1368C49.8261 12.1368 50.0428 12.1399 50.259 12.1368C50.3576 12.1289 50.4554 12.1155 50.5517 12.097V1.09606H49.5183Z" fill="white"/>
<path d="M182.794 37.4802C183.731 37.4802 184.576 37.4802 185.421 37.4802C185.682 37.4802 185.813 37.6164 185.854 37.8056C185.933 38.1655 186.043 38.526 186.059 38.8885C186.089 39.5696 186.086 40.2508 186.044 40.9319C186.012 41.2954 185.929 41.6548 185.796 42.0033C185.713 42.2354 185.694 42.4382 185.808 42.6613C185.897 42.821 185.955 42.9906 185.979 43.1643C186.085 44.2777 186.176 45.3921 185.994 46.5059C185.974 46.6268 185.941 46.7462 185.896 46.8627C185.72 47.3206 185.661 47.372 185.081 47.3867C184.345 47.4024 183.608 47.3903 182.796 47.3903C182.824 44.11 182.75 40.825 182.794 37.4802ZM185.381 43.1041H183.407V45.5927H185.414C185.534 44.733 185.565 43.9277 185.381 43.1041ZM183.416 38.9886V41.4951C183.991 41.4951 184.549 41.5019 185.105 41.4919C185.386 41.4872 185.46 41.319 185.462 41.1294C185.468 40.5562 185.47 39.983 185.462 39.4099C185.462 39.1416 185.295 38.9907 184.938 38.9907C184.471 38.9897 183.997 38.9886 183.418 38.9886H183.416Z" fill="white"/>
<path d="M221.152 41.4375H222.559C222.734 41.4375 222.908 41.4407 223.083 41.4375C223.372 41.4333 223.523 41.5423 223.552 41.7749C223.618 42.3114 223.749 42.8458 223.761 43.3823C223.787 44.2887 223.788 45.1988 223.722 46.1036C223.629 47.3652 223.599 47.3647 222.061 47.4134C221.756 47.4229 221.45 47.4344 221.144 47.4281C220.702 47.4192 220.503 47.3333 220.466 46.9932C220.39 46.2823 220.383 45.5661 220.37 44.8519C220.37 44.765 220.508 44.6764 220.583 44.59L220.717 44.6146C220.754 44.9138 220.791 45.2129 220.833 45.5545C221.602 45.6703 222.352 45.5886 223.196 45.5828V43.2068H220.773C220.682 42.8401 220.538 42.5199 220.534 42.1998C220.518 40.9272 220.495 39.6525 220.574 38.3825C220.629 37.4803 220.722 37.464 221.832 37.4368C222.181 37.4284 222.531 37.4274 222.88 37.4452C223.362 37.4698 223.487 37.5259 223.553 37.8853C223.656 38.4522 223.697 39.0269 223.749 39.5996C223.773 39.8573 223.572 40.0046 223.232 40.146C223.207 39.784 223.185 39.4686 223.162 39.1369H221.249C221.049 39.5283 221.001 40.6951 221.152 41.4375Z" fill="white"/>
<path d="M200.23 40.1239C200.207 39.8096 200.186 39.5225 200.165 39.1955C199.431 39.1065 198.728 39.1751 197.938 39.1829C197.836 41.3311 197.916 43.4378 197.872 45.5943C198.669 45.6676 199.394 45.611 200.157 45.5785V43.2764L199.083 43.2292C199.017 42.7205 199.083 42.227 199.094 41.6962H200.699C200.726 41.801 200.774 41.8964 200.773 41.9933C200.77 43.3555 200.773 44.7177 200.742 46.0799C200.735 46.4058 200.62 46.7307 200.55 47.055C200.501 47.2787 200.322 47.3782 200.044 47.3829C199.389 47.3945 198.734 47.4249 198.079 47.418C197.637 47.4139 197.45 47.2677 197.398 46.9088C197.351 46.5608 197.328 46.211 197.328 45.8609C197.31 44.2027 197.305 42.5439 197.289 40.8836C197.284 40.2905 197.243 39.6969 197.256 39.1023C197.269 38.7364 197.316 38.3718 197.396 38.0114C197.468 37.6657 197.718 37.4875 198.149 37.4713C198.738 37.4477 199.328 37.4362 199.917 37.4498C200.389 37.4603 200.548 37.5352 200.601 37.8847C200.696 38.505 200.719 39.1337 200.744 39.7598C200.755 39.9867 200.539 40.0804 200.23 40.1239Z" fill="white"/>
<path d="M100.477 44.6795C100.496 44.9677 100.513 45.2559 100.533 45.5728H102.899V43.2676C102.768 43.2482 102.629 43.2084 102.488 43.2084C102.008 43.2084 101.527 43.2304 101.047 43.2262C100.556 43.222 100.392 43.0978 100.312 42.7085C100.292 42.6045 100.281 42.4994 100.28 42.3942C100.248 41.2593 100.207 40.125 100.198 38.9886C100.204 38.6395 100.251 38.2915 100.337 37.9492C100.411 37.6191 100.588 37.4996 101.002 37.4813C101.526 37.4577 102.05 37.4635 102.574 37.4546C102.933 37.4488 103.181 37.5866 103.223 37.8653C103.315 38.4689 103.383 39.0761 103.428 39.6834C103.442 39.8673 103.288 40.0056 102.98 40.0328C102.951 39.7405 102.924 39.4565 102.894 39.1615H100.798C100.677 39.9149 100.69 40.6228 100.722 41.3893C100.962 41.406 101.17 41.4312 101.377 41.4333C101.813 41.438 102.25 41.4333 102.687 41.427C102.999 41.4223 103.178 41.5318 103.225 41.7817C103.271 42.0222 103.37 42.2611 103.375 42.5016C103.405 43.6888 103.452 44.8765 103.416 46.0643C103.376 47.338 103.254 47.405 101.667 47.4333C101.339 47.4391 101.012 47.4333 100.684 47.4286C100.441 47.4234 100.272 47.3285 100.201 47.1357C99.9332 46.4022 99.9653 45.6493 100.014 44.9001C100.022 44.7953 100.238 44.7005 100.357 44.601L100.477 44.6795Z" fill="white"/>
<path d="M122.335 42.5288C122.335 41.4653 122.316 40.4012 122.344 39.3381C122.364 38.8687 122.428 38.401 122.535 37.9392C122.617 37.5557 122.718 37.4986 123.183 37.4829C123.837 37.4604 124.492 37.4483 125.143 37.4556C125.604 37.4604 125.72 37.5327 125.814 37.8968C125.91 38.2703 125.997 38.6533 126.003 39.0332C126.035 41.2468 126.056 43.4609 126.047 45.675C126.047 46.1219 125.906 46.5699 125.812 47.0152C125.762 47.2499 125.566 47.3731 125.261 47.382C124.564 47.3972 123.868 47.4297 123.171 47.4255C122.705 47.4255 122.619 47.3511 122.539 46.967C122.457 46.6247 122.407 46.2779 122.391 45.9296C122.372 44.7969 122.384 43.6637 122.384 42.5309L122.335 42.5288ZM123.028 39.1982C122.972 41.3521 122.986 43.4509 122.99 45.5734H125.388V39.1982H123.028Z" fill="white"/>
<path d="M210.904 47.4458V37.4681C211.609 37.4681 212.28 37.455 212.948 37.4729C213.309 37.4823 213.55 37.6877 213.692 37.9292C213.875 38.2436 214.069 38.5668 214.15 38.9027C214.698 41.2561 214.733 43.6143 214.129 45.9652C214.035 46.332 213.831 46.6929 213.612 47.0293C213.518 47.1765 213.271 47.3348 213.073 47.3526C212.385 47.4154 211.692 47.4154 210.904 47.4458ZM211.538 45.6016C211.834 45.6016 212.07 45.6016 212.306 45.6016C212.986 45.6016 213.41 45.3239 213.588 44.8089C213.681 44.5412 213.795 44.2672 213.804 43.9937C213.839 42.9495 213.87 41.9032 213.829 40.859C213.812 40.4325 213.627 40.0071 213.487 39.588C213.409 39.3553 213.202 39.184 212.878 39.1782C212.451 39.1704 212.026 39.1892 211.538 39.1976V45.6016Z" fill="white"/>
<path d="M168.435 40.0401C168.415 39.7258 168.397 39.4544 168.378 39.1584H166.228C166.177 39.9217 166.191 40.6421 166.213 41.4385H167.617C167.835 41.4385 168.053 41.4411 168.272 41.4432C168.5 41.4432 168.643 41.5307 168.681 41.7135C168.756 42.0745 168.878 42.434 168.891 42.796C168.925 43.8077 168.935 44.8204 168.911 45.8321C168.901 46.2293 168.78 46.6248 168.698 47.0204C168.65 47.2593 168.47 47.3798 168.158 47.3872C167.526 47.4003 166.893 47.4207 166.259 47.4443C165.921 47.4574 165.677 47.3342 165.651 47.0775C165.579 46.3493 165.535 45.6194 165.521 44.888C165.521 44.7911 165.737 44.6905 165.933 44.5213C165.97 44.9404 165.999 45.2443 166.027 45.5728H168.379V43.2335C168.19 43.2193 168.043 43.1978 167.897 43.1989C167.504 43.202 167.111 43.2156 166.718 43.2235C165.943 43.2397 165.821 43.1711 165.782 42.5707C165.724 41.68 165.682 40.792 165.678 39.9023C165.677 39.2926 165.716 38.6833 165.796 38.077C165.862 37.5499 165.972 37.4944 166.625 37.4755C167.105 37.4614 167.585 37.4687 168.066 37.4614C168.39 37.4566 168.642 37.5499 168.679 37.8218C168.764 38.4432 168.83 39.066 168.876 39.6901C168.895 39.8819 168.748 40.0144 168.435 40.0401Z" fill="white"/>
<path d="M132.366 47.4155V37.4959C133.091 37.4257 133.779 37.3754 134.458 37.4886C134.924 37.5661 135.141 37.8873 135.317 38.2221C135.714 38.9729 135.858 39.7714 135.906 40.5693C136 42.2233 136.091 43.8831 135.687 45.5236C135.587 45.9335 135.446 46.3365 135.266 46.7286C135.06 47.1739 134.657 47.4354 134.021 47.4197C133.48 47.4034 132.945 47.4155 132.366 47.4155ZM132.968 39.1819V45.5953C133.248 45.5953 133.483 45.6042 133.716 45.5953C134.486 45.5597 134.807 45.3669 135.014 44.7618C135.134 44.4113 135.245 44.0471 135.258 43.6867C135.292 42.7646 135.305 41.8398 135.253 40.9188C135.228 40.475 135.061 40.0323 134.918 39.5979C134.843 39.3732 134.643 39.1924 134.313 39.1846C133.886 39.173 133.458 39.1804 132.968 39.1804V39.1819Z" fill="white"/>
<path d="M131.219 47.3631L130.736 47.3872C130.397 47.4061 130.247 47.2824 130.159 47.0131C129.842 46.0344 129.487 45.0641 129.143 44.0906C129.09 43.9418 129.022 43.7967 128.94 43.6023L128.18 43.6783V47.3411H127.65V37.4855C128.541 37.4855 129.385 37.4776 130.228 37.4939C130.301 37.5015 130.37 37.5222 130.432 37.5544C130.493 37.5866 130.544 37.6295 130.582 37.6799C130.702 37.879 130.829 38.1016 130.832 38.3159C130.856 39.7829 130.852 41.2462 130.85 42.7117C130.85 43.201 130.6 43.5499 129.893 43.6385C129.959 44.3013 130.286 44.8928 130.498 45.5037C130.711 46.1057 130.96 46.6993 131.219 47.3631ZM128.2 42.0049C128.724 42.0049 129.2 42.0154 129.675 42.0023C130.124 41.9897 130.259 41.9347 130.279 41.5905C130.322 40.8612 130.295 40.1292 130.279 39.3983C130.275 39.2275 130.148 39.1034 129.9 39.1091C129.362 39.1217 128.825 39.1369 128.25 39.1521C128.179 40.1277 128.058 41.0398 128.2 42.0049Z" fill="white"/>
<path d="M160.831 37.4875C161.777 37.4875 162.622 37.4875 163.468 37.4875C163.702 37.4875 163.824 37.6002 163.871 37.771C163.953 38.0759 164.089 38.3814 164.096 38.6884C164.125 39.9086 164.114 41.1294 164.114 42.3496C164.116 42.4723 164.106 42.595 164.083 42.7163C163.993 43.1622 163.872 43.5918 163.083 43.6112C163.381 44.8975 164.014 46.0663 164.427 47.3447H163.493C163.056 46.0952 162.624 44.8587 162.183 43.5934L161.413 43.6264V47.2939C160.846 47.3756 160.829 47.3756 160.824 47.0398C160.809 46.2204 160.804 45.401 160.808 44.5815C160.814 42.4544 160.823 40.3271 160.834 38.1996C160.831 37.9905 160.831 37.7836 160.831 37.4875ZM161.456 39.1578C161.355 40.1004 161.344 41.0478 161.423 41.9918C161.966 41.9918 162.443 42.0064 162.917 41.987C163.379 41.9682 163.464 41.9205 163.488 41.5564C163.529 40.9308 163.52 40.3026 163.515 39.676C163.515 39.5083 163.45 39.3412 163.414 39.1578H161.456Z" fill="white"/>
<path d="M147.647 43.7779V37.529L148.211 37.4933V47.3191C147.883 47.4239 147.737 47.3222 147.651 47.0681C147.07 45.3517 146.48 43.6373 145.882 41.9247C145.771 41.6058 145.608 41.3001 145.397 41.0152C145.218 42.0761 145.305 43.1324 145.286 44.185C145.268 45.2286 145.283 46.2723 145.283 47.338H144.774C144.764 44.0487 144.726 40.782 144.833 37.519C145.235 37.4666 145.248 37.6694 145.304 37.8281C145.597 38.6502 145.882 39.4733 146.175 40.2948C146.547 41.3343 146.921 42.3729 147.299 43.4106C147.345 43.54 147.419 43.6631 147.48 43.7894L147.647 43.7779Z" fill="white"/>
<path d="M195.004 37.5405C195.301 37.4682 195.481 37.4723 195.511 37.6976C195.518 37.7848 195.519 37.8723 195.515 37.9596C195.515 40.9439 195.515 43.9282 195.515 46.9125C195.515 47.0476 195.493 47.1833 195.481 47.3086C195.069 47.4343 195.008 47.2205 194.934 47.0089C194.484 45.7165 194.031 44.4242 193.576 43.1318C193.369 42.5443 193.158 41.9579 192.942 41.3725C192.893 41.2676 192.836 41.1653 192.771 41.0665L192.636 41.0833C192.613 43.1627 192.59 45.2417 192.567 47.3374C192.26 47.405 192.052 47.416 192.043 47.1236C192.043 47.0712 192.039 47.0188 192.039 46.9664C192.039 43.9126 192.041 40.8587 192.044 37.8045C192.049 37.7232 192.06 37.6422 192.078 37.5619C192.37 37.4571 192.515 37.5499 192.587 37.7537C193.172 39.4152 193.757 41.0763 194.343 42.7368C194.478 43.1171 194.629 43.4933 194.773 43.8716L194.942 43.8585C194.958 43.6793 194.988 43.5001 194.989 43.3209C194.997 41.5745 195.002 39.8293 195.004 38.0853L195.004 37.5405Z" fill="white"/>
<path d="M156.298 37.4886H159.293V39.0798H157.084C156.871 39.5136 156.814 40.6925 156.954 41.4192L158.259 41.4873V42.993L157.029 43.0858C156.87 43.4494 156.817 44.8179 156.94 45.5608C157.7 45.7316 158.515 45.5084 159.309 45.6583V47.3809H156.297L156.298 37.4886Z" fill="white"/>
<path d="M113 37.4435C113.458 37.4655 113.48 37.6856 113.524 37.8595C113.673 38.4222 113.794 38.9897 113.932 39.5544C114.182 40.5817 114.436 41.6088 114.693 42.6357C114.73 42.785 114.795 42.9296 114.847 43.0763L114.986 43.0831C115.117 42.5697 115.259 42.0578 115.379 41.5433C115.675 40.3096 115.965 39.0751 116.25 37.8396C116.303 37.6149 116.363 37.4142 116.782 37.5368V47.3343L116.311 47.3636C116.208 45.3475 116.392 43.3487 116.255 41.2504C116.006 41.5446 115.842 41.8795 115.775 42.2307C115.546 43.3135 115.313 44.3962 115.077 45.479C115.041 45.6488 114.989 45.8164 114.91 46.1125C114.217 44.4532 114.255 42.7892 113.633 41.2473L113.476 41.2504C113.455 41.4652 113.416 41.68 113.415 41.8943C113.409 43.5007 113.411 45.1076 113.408 46.7144C113.418 46.872 113.408 47.03 113.378 47.186C113.361 47.2567 113.238 47.3102 113.095 47.3536C112.981 44.0497 112.963 40.7616 113 37.4435Z" fill="white"/>
<path d="M216.553 41.4317L217.871 41.4894V42.9894L216.558 43.0941V45.598H218.896C219.016 46.1995 218.94 46.7506 218.978 47.2803C218.447 47.4286 216.575 47.47 215.936 47.3532V37.5557C216.416 37.4347 218.336 37.4174 218.961 37.5363C218.961 37.868 218.964 38.2122 218.961 38.5569C218.961 38.7094 218.938 38.8613 218.92 39.0809H216.602C216.501 39.8619 216.485 40.6484 216.553 41.4317Z" fill="white"/>
<path d="M225.909 41.2677H228.35V37.5054L228.939 37.4666V47.3526H228.365V43.1009H226.039C225.851 44.5224 225.992 45.916 225.902 47.339H225.36C225.346 47.1677 225.322 47.0142 225.322 46.8601C225.322 43.9293 225.324 40.9981 225.328 38.0665C225.328 37.9617 225.337 37.8569 225.333 37.7522C225.324 37.4761 225.526 37.4378 225.896 37.4818C225.901 37.8852 225.908 38.2939 225.91 38.702C225.91 39.1212 225.91 39.5403 225.91 39.9595L225.909 41.2677Z" fill="white"/>
<path d="M139.817 37.4802L140.39 37.5138V45.5817H142.593C142.593 45.3397 142.593 45.1364 142.593 44.9331C142.593 42.6806 142.595 40.4277 142.599 38.1744C142.599 38.0518 142.612 37.9292 142.603 37.8077C142.578 37.509 142.766 37.4409 143.132 37.5164C143.148 37.6432 143.179 37.7783 143.18 37.9119C143.187 40.5316 143.2 43.1512 143.185 45.7709C143.185 46.1848 143.063 46.5997 142.981 47.0115C142.933 47.2489 142.742 47.3715 142.435 47.3783C141.824 47.3914 141.213 47.4223 140.601 47.4223C140.137 47.4223 140.04 47.3631 139.946 46.978C139.842 46.603 139.783 46.2209 139.771 45.8369C139.76 43.1648 139.771 40.4928 139.777 37.8208C139.777 37.7197 139.8 37.618 139.817 37.4802Z" fill="white"/>
<path d="M209.728 47.3904H209.045C208.917 46.6616 208.792 45.9454 208.661 45.1993H206.714C206.558 45.9187 206.408 46.6139 206.249 47.3437H205.683C205.945 45.7594 206.188 44.207 206.456 42.6567C206.733 41.0514 207.033 39.4487 207.323 37.8449C207.397 37.4389 207.397 37.4389 207.994 37.5306C208.567 40.7863 209.142 44.0592 209.728 47.3904ZM208.426 43.4337C208.082 42.2365 208.171 41.0645 207.672 39.883C207.326 40.6265 206.97 43.0559 207.116 43.4337H208.426Z" fill="white"/>
<path d="M190.88 47.4044H190.212C190.074 46.6573 189.938 45.9233 189.806 45.2086H187.892L187.412 47.363H186.827C187.392 44.0686 187.953 40.8028 188.508 37.5656C189.098 37.4304 189.156 37.454 189.229 37.8684C189.575 39.874 189.913 41.8807 190.265 43.8857C190.423 44.7843 190.607 45.6797 190.773 46.5777C190.818 46.8333 190.839 47.0916 190.88 47.4044ZM189.484 43.4378C189.519 42.6833 189.106 40.4158 188.843 40.0322C188.748 40.2114 188.636 40.3398 188.613 40.4776C188.455 41.4091 188.313 42.3422 188.172 43.2759C188.165 43.3199 188.211 43.3697 188.241 43.4367L189.484 43.4378Z" fill="white"/>
<path d="M108.375 47.3321H107.76C107.826 46.8826 107.872 46.4535 107.947 46.0276C108.37 43.628 108.798 41.2287 109.23 38.8298C109.291 38.4846 109.371 38.1419 109.436 37.7967C109.467 37.6311 109.507 37.4823 109.778 37.4896C110.034 37.4949 110.099 37.6259 110.129 37.7977C110.292 38.7298 110.46 39.6613 110.625 40.5934C110.966 42.5263 111.307 44.4591 111.648 46.3917C111.701 46.6982 111.741 47.0057 111.79 47.34H111.08C111.024 46.879 110.972 46.4493 110.92 46.0166C110.906 45.895 110.902 45.7724 110.879 45.6498C110.794 45.2003 110.733 45.1542 110.172 45.1573C109.845 45.1573 109.517 45.1846 109.19 45.1909C108.876 45.1966 108.717 45.3082 108.683 45.566C108.618 46.0684 108.528 46.5693 108.446 47.0707C108.437 47.1404 108.411 47.2059 108.375 47.3321ZM109.859 39.9657L109.676 39.9731C109.329 41.0995 109.227 42.2516 109.069 43.3954C109.805 43.497 109.93 43.4912 110.459 43.3304C110.26 42.217 110.059 41.0916 109.859 39.9657Z" fill="white"/>
<path d="M118.977 39.1605V41.7675L120.197 41.8199C120.274 42.3564 120.197 42.8882 120.228 43.4656L118.907 43.6086V47.3469H118.332V37.5625C118.84 37.4415 120.571 37.4247 121.283 37.5337V39.0683L118.977 39.1605Z" fill="white"/>
<path d="M153.394 44.0838C153.692 43.7522 153.739 43.4813 153.78 43.2067C154.044 41.4579 154.31 39.709 154.578 37.9601C154.643 37.5237 154.665 37.5096 155.265 37.5525C155.217 37.9455 155.185 38.3421 155.118 38.735C154.731 40.9816 154.332 43.2272 153.947 45.4743C153.858 45.9925 153.799 46.5143 153.738 47.0356C153.706 47.3065 153.564 47.417 153.188 47.3018C152.63 44.0497 152.071 40.7883 151.504 37.4875H152.167C152.629 39.655 152.874 41.8335 153.394 44.0838Z" fill="white"/>
<path d="M172.049 37.487H175.414V39.1258L174.085 39.2034V47.3562L173.395 47.3987V39.2149L172.039 39.1536C171.967 38.6134 172.043 38.0858 172.049 37.487Z" fill="white"/>
<path d="M202.892 45.6022H205.148V47.3678C204.196 47.3888 203.281 47.4448 202.313 47.3746V37.5599C202.395 37.5276 202.48 37.5028 202.569 37.486C202.649 37.4781 202.734 37.4986 202.892 37.5138V45.6022Z" fill="white"/>
<path d="M178.003 47.35H177.457C177.441 47.1928 177.416 47.0555 177.416 46.9203C177.416 46.0475 177.371 45.1725 177.429 44.3007C177.49 43.399 177.259 42.5403 177.017 41.6753C176.649 40.3651 176.286 39.0539 175.927 37.7416C175.909 37.6762 175.905 37.608 175.89 37.509H176.682C177.013 38.6617 177.336 39.7897 177.661 40.9146L177.826 40.9187C177.919 40.6819 178.029 40.4472 178.101 40.2073C178.335 39.4271 178.553 38.6439 178.78 37.8627C178.899 37.453 178.902 37.4535 179.55 37.4629C179.535 37.6122 179.542 37.7621 179.502 37.903C179.043 39.501 178.572 41.099 178.116 42.6954C178.048 42.9321 178.012 43.174 178.008 43.4168C177.996 44.5171 178.003 45.6173 178.003 46.7176V47.35Z" fill="white"/>
<path d="M105.583 39.2113L104.29 39.1443C104.271 39.052 104.258 38.9589 104.25 38.8655C104.246 38.4317 104.25 37.9979 104.25 37.5127C105.387 37.4242 106.458 37.4509 107.577 37.4635V39.0819L106.241 39.1909C106.208 41.909 106.241 44.6052 106.224 47.3338L105.727 47.3568C105.698 47.2714 105.657 47.207 105.656 47.142C105.649 46.4792 105.647 45.816 105.645 45.1511C105.639 43.3886 105.633 41.6261 105.626 39.8636C105.624 39.6614 105.599 39.4549 105.583 39.2113Z" fill="white"/>
<path d="M170.439 37.5132H170.99V47.3432L170.439 47.3788V37.5132Z" fill="white"/>
<path d="M149.972 47.3264C149.963 47.1834 149.949 47.0645 149.949 46.9445C149.949 43.9955 149.949 41.0466 149.949 38.098C149.941 37.9412 149.951 37.7842 149.979 37.629C149.995 37.5693 150.133 37.4797 150.197 37.4892C150.253 37.4988 150.305 37.5178 150.352 37.5449C150.398 37.572 150.436 37.6065 150.464 37.6463C150.513 37.7354 150.488 37.8517 150.488 37.9565C150.488 40.9397 150.488 43.9233 150.488 46.9073C150.488 46.9775 150.488 47.0472 150.484 47.1169C150.473 47.3678 150.3 47.4055 149.972 47.3264Z" fill="white"/>
<path d="M23.6736 16.8453C25.2683 16.8521 26.5506 17.8932 26.5238 19.1537C26.4969 20.4416 25.2271 21.4711 23.6586 21.4548C22.3376 21.4417 20.773 20.6831 20.7901 19.1097C20.8045 17.8261 22.054 16.838 23.6736 16.8453ZM23.6795 17.9026C22.9238 17.8135 22.0684 18.4559 22.0855 19.1375C22.1051 19.8275 22.796 20.4033 23.6572 20.4002C24.4837 20.3965 25.195 19.8354 25.233 19.1763C25.2677 18.6068 24.5781 17.8387 23.6795 17.9026Z" fill="white"/>
<path d="M45.4776 41.3903C46.0867 41.6601 46.3552 42.0112 46.3473 42.554C46.3216 44.3521 46.3257 46.1509 46.3598 47.9504C46.367 48.379 46.1227 48.6357 45.7402 48.8657C45.5595 48.9752 45.3898 48.9967 45.2163 48.8589C44.8738 48.5865 44.6223 48.3161 44.6321 47.8729C44.6718 46.1097 44.6742 44.3458 44.6393 42.5812C44.6301 42.0368 44.9373 41.7 45.4776 41.3903Z" fill="white"/>
<path d="M66.6023 49.0071C65.9513 48.675 65.7194 48.2789 65.7365 47.7062C65.7849 46.0684 65.7871 44.4299 65.743 42.7907C65.7266 42.1882 65.9748 41.7518 66.5944 41.3793C67.0758 41.6412 67.4582 41.9194 67.4491 42.4759C67.4202 44.2712 67.4202 46.0667 67.4491 47.8624C67.4622 48.4146 67.1308 48.7305 66.6023 49.0071Z" fill="white"/>
<path d="M57.9051 49.0234C57.3674 48.6976 57.0281 48.3816 57.0465 47.8069C57.1035 46.0496 57.0943 44.2908 57.0733 42.5325C57.0674 42.0149 57.3628 41.69 57.8802 41.3972C58.4126 41.6738 58.7768 41.9824 58.7669 42.5566C58.7368 44.262 58.7303 45.9695 58.7859 47.6743C58.8088 48.2763 58.4978 48.6583 57.9051 49.0234Z" fill="white"/>
<path d="M70.8108 56.9614C70.7896 56.8619 70.7758 56.7615 70.7695 56.6607C70.7748 54.7944 70.7911 52.9282 70.7859 51.062C70.7859 50.514 71.1415 50.164 71.6373 49.8334C72.213 50.2137 72.5614 50.5847 72.5227 51.2171C72.4415 52.5573 72.4743 53.9022 72.488 55.2455C72.488 55.5657 72.3976 55.8166 72.1114 56.0414C71.7113 56.3558 71.3347 56.6884 70.9477 57.0138L70.8108 56.9614Z" fill="white"/>
<path d="M70.9292 41.7539C71.4453 42.2223 71.905 42.6163 72.3255 43.0365C72.4466 43.157 72.5049 43.3508 72.5049 43.5117C72.5049 44.9415 72.4892 46.3713 72.4748 47.8011C72.4683 48.4397 72.3713 48.5718 71.5966 49.0061C71.3405 48.8128 71.0654 48.6221 70.8218 48.4088C70.7478 48.3439 70.7393 48.2145 70.7406 48.1149C70.7659 46.0751 70.7958 44.0354 70.8303 41.996C70.831 41.9483 70.8663 41.9032 70.9292 41.7539Z" fill="white"/>
<path d="M71.3287 57.5299C71.8815 57.051 72.3111 56.6392 72.7997 56.2761C72.9477 56.1656 73.2424 56.1462 73.4703 56.1436C75.1934 56.1268 76.9158 56.131 78.6388 56.1132C79.1778 56.1079 79.4752 56.3673 79.7286 56.6811C79.7843 56.7508 79.7836 56.9101 79.7214 56.9703C79.3939 57.2904 79.0763 57.6189 78.4548 57.61C77.0376 57.5891 75.6197 57.6006 74.2018 57.598C73.3945 57.598 72.5868 57.5952 71.7787 57.5896C71.6988 57.5891 71.6169 57.5686 71.3287 57.5299Z" fill="white"/>
<path d="M79.8687 49.4331C79.5007 49.957 79.0239 50.1975 78.3028 50.1865C76.7147 50.1624 75.1246 50.1588 73.5371 50.1907C72.9142 50.2033 72.5914 49.9057 72.2449 49.5971C72.1028 49.4708 72.1565 49.3388 72.2973 49.2272C72.7302 48.8835 73.1428 48.5985 73.8593 48.6268C75.2723 48.685 76.6881 48.685 78.1011 48.6268C78.9473 48.5954 79.447 48.8898 79.8687 49.4331Z" fill="white"/>
<path d="M71.4996 41.3007C73.852 41.3007 76.2045 41.308 78.5569 41.2954C79.1633 41.2923 79.3932 41.6716 79.7534 41.9021C79.4915 42.5722 79.295 42.709 78.5052 42.7158C76.8024 42.7305 75.1062 42.7284 73.4067 42.7457C73.072 42.7493 72.8238 42.6676 72.6077 42.4664C72.2147 42.1023 71.8107 41.7497 71.4105 41.3918L71.4996 41.3007Z" fill="white"/>
<path d="M33.0565 56.3647C32.3858 56.0561 32.1396 55.6464 32.1671 55.0549C32.2247 53.7304 32.2241 52.4027 32.1959 51.0772C32.1848 50.5397 32.4769 50.1923 33.0021 49.8895C33.5719 50.1179 33.9268 50.4134 33.9105 50.9745C33.8692 52.3891 33.8496 53.8037 33.8875 55.2141C33.9026 55.7622 33.6184 56.0938 33.0565 56.3647Z" fill="white"/>
<path d="M62.2935 56.1168C63.1416 56.1168 63.9897 56.109 64.8372 56.1221C65.0677 56.1257 65.3565 56.1383 65.5118 56.2452C65.7501 56.4116 65.9289 56.6257 66.0298 56.8655C66.0953 57.0342 65.3703 57.5398 65.0821 57.5906C65.039 57.5977 64.9951 57.6011 64.9511 57.6006C63.1678 57.6053 61.3845 57.6142 59.6005 57.6095C59.201 57.6095 58.6221 57.2213 58.5343 56.9321C58.5102 56.8663 58.5184 56.7956 58.5573 56.7346C58.8376 56.426 59.1054 56.121 59.6824 56.1367C60.5515 56.1608 61.4225 56.143 62.2922 56.143L62.2935 56.1168Z" fill="white"/>
<path d="M80.2585 56.4119C80.0181 56.2123 79.7738 56.0394 79.5806 55.8355C79.487 55.737 79.4542 55.5799 79.4542 55.4494C79.4595 53.9174 79.4843 52.386 79.4843 50.8546C79.4843 50.3862 79.8773 50.1499 80.2702 49.8649C80.8046 50.1184 81.195 50.3972 81.1825 50.9578C81.1511 52.4201 81.155 53.8823 81.1694 55.3446C81.1753 55.8748 80.8099 56.1599 80.2585 56.4119Z" fill="white"/>
<path d="M32.9791 49.0428C32.8757 48.9904 32.856 48.9804 32.8396 48.9699C32.2384 48.5817 32.1454 48.0709 32.1697 47.4815C32.2247 46.1564 32.2109 44.8299 32.2122 43.5038C32.2122 43.2816 32.2581 43.0883 32.4644 42.9348C32.6707 42.7813 32.8174 42.447 33.1704 42.5681C33.5234 42.6891 33.8187 42.9243 33.8803 43.2691C33.89 43.3562 33.8922 43.4437 33.8868 43.531C33.8868 44.9456 33.8534 46.3602 33.9045 47.7707C33.9268 48.391 33.4965 48.709 32.9791 49.0428Z" fill="white"/>
<path d="M66.5637 49.8696C67.14 50.1598 67.4759 50.4925 67.4576 51.0662C67.4144 52.462 67.4177 53.8593 67.4517 55.2576C67.4622 55.6977 67.1989 55.9765 66.8577 56.2505C66.677 56.3956 66.4877 56.4077 66.2814 56.2662C65.9742 56.053 65.7352 55.814 65.7378 55.4688C65.7503 53.9677 65.7503 52.4662 65.7863 50.963C65.7968 50.5302 66.0509 50.1614 66.5637 49.8696Z" fill="white"/>
<path d="M49.8935 56.1389C50.6991 56.1389 51.5046 56.1347 52.3101 56.1389C52.5027 56.1389 52.7457 56.1242 52.8766 56.2064C53.1657 56.379 53.4134 56.592 53.6075 56.8352C53.709 56.9714 53.0181 57.4937 52.6736 57.5639C52.5038 57.5936 52.33 57.6063 52.1562 57.6017C50.589 57.6017 49.0212 57.587 47.454 57.6017C46.8862 57.6069 46.5076 57.401 46.2011 57.0531C46.0702 56.9054 46.0702 56.7665 46.2011 56.6209C46.469 56.3275 46.7729 56.1216 47.2804 56.1362C48.1502 56.1614 49.0218 56.1436 49.8929 56.1436L49.8935 56.1389Z" fill="white"/>
<path d="M41.2232 42.0127C40.8433 42.4921 40.4006 42.7609 39.6645 42.7415C38.0528 42.698 36.4377 42.7137 34.8247 42.6959C34.6138 42.6959 34.3604 42.6828 34.2025 42.5911C33.9511 42.446 33.6374 42.2846 33.6786 41.9781C33.7114 41.7487 34.3132 41.329 34.6099 41.3148C34.9793 41.2965 35.3512 41.3017 35.7232 41.3007C37.0095 41.2965 38.2983 41.3311 39.5813 41.2761C40.3462 41.2446 40.8171 41.4951 41.2232 42.0127Z" fill="white"/>
<path d="M45.4422 56.3521C44.8658 56.0849 44.6255 55.7197 44.6347 55.2125C44.6582 53.8346 44.6589 52.4562 44.6504 51.0777C44.6431 50.7263 44.7944 50.3846 45.0767 50.1153C45.3387 49.8596 45.4697 49.8533 45.7794 50.0508C46.156 50.2929 46.3577 50.58 46.3479 50.9939C46.3151 52.4085 46.3243 53.8199 46.3184 55.2335C46.3158 55.8722 46.2287 55.988 45.4422 56.3521Z" fill="white"/>
<path d="M80.2381 49.015C79.6572 48.6676 79.4319 48.2537 79.4522 47.6889C79.5059 46.399 79.4784 45.107 79.4882 43.8155C79.4941 43.0857 79.5327 43.026 80.2878 42.5162C80.8393 42.7331 81.1923 43.0301 81.1798 43.5887C81.1497 44.9509 81.168 46.3105 81.1621 47.6716C81.1628 48.3821 81.0397 48.5565 80.2381 49.015Z" fill="white"/>
<path d="M57.8331 56.3637C57.6458 56.2065 57.4971 56.0493 57.3151 55.9315C57.133 55.8136 57.0701 55.6611 57.0714 55.4756C57.0806 53.9437 57.0917 52.4117 57.0858 50.8797C57.0858 50.3899 57.539 50.1682 57.8861 49.8403C58.4454 50.1955 58.784 50.5685 58.7722 51.1349C58.7441 52.4751 58.7631 53.8158 58.7526 55.1566C58.748 55.769 58.5679 55.9996 57.8331 56.3637Z" fill="white"/>
<path d="M33.6603 56.8739C33.9701 56.3285 34.4331 56.1242 35.1391 56.1404C36.7312 56.1724 38.3245 56.1551 39.9199 56.1467C40.2703 56.1467 40.5408 56.2201 40.7844 56.4328C41.2428 56.8346 41.2487 56.9719 40.7412 57.3266C40.5007 57.5078 40.1827 57.6084 39.8524 57.6079C38.2374 57.6022 36.6224 57.5969 35.0061 57.6079C34.3381 57.6079 33.9877 57.2852 33.6603 56.8739Z" fill="white"/>
<path d="M28.455 30.0116C28.9069 29.878 29.1755 29.9707 29.4237 30.2683C30.5772 31.662 31.7466 33.0469 32.932 34.4231C33.2536 34.7966 33.3145 35.1812 33.2208 35.6129C32.8842 35.7753 32.6393 35.6968 32.4421 35.4557C32.1802 35.1356 31.9182 34.8139 31.651 34.497C30.7132 33.3878 29.774 32.2739 28.8225 31.1737C28.5161 30.8391 28.3844 30.4224 28.455 30.0116Z" fill="white"/>
<path d="M71.3241 35.5328C70.9515 35.2766 70.8657 34.9994 70.8703 34.6641C70.8932 33.1625 70.8906 31.661 70.8926 30.1583C70.8926 29.8372 70.9436 29.5359 71.2901 29.2881C71.6483 29.4736 71.8625 29.7072 71.8618 30.0499C71.8566 31.6217 71.8441 33.1934 71.852 34.7652C71.854 35.1032 71.6378 35.3127 71.3241 35.5328Z" fill="white"/>
<path d="M71.3071 28.2921C70.922 28.005 70.8657 27.6953 70.869 27.349C70.8828 25.9197 70.8932 24.4904 70.869 23.0612C70.8611 22.6536 70.9856 22.3167 71.3274 21.9871C71.6844 22.2339 71.871 22.511 71.8677 22.8883C71.8527 24.3872 71.8442 25.8862 71.8677 27.3851C71.8645 27.7781 71.6778 28.0469 71.3071 28.2921Z" fill="white"/>
<path d="M64.7404 29.2477C65.3671 29.4196 65.3848 29.4196 65.3861 29.8927C65.3894 31.5515 65.375 33.2107 65.3802 34.87C65.3802 35.1938 65.1975 35.3845 64.8301 35.5328C64.559 35.2933 64.4208 35.0434 64.4228 34.7306C64.4319 33.1589 64.435 31.5871 64.4319 30.0153C64.4313 29.7282 64.502 29.4662 64.7404 29.2477Z" fill="white"/>
<path d="M27.4256 29.2488C27.7642 29.4856 27.9496 29.7449 27.9417 30.1122C27.9203 31.6141 27.9159 33.1161 27.9286 34.618C27.9286 34.9737 27.8264 35.2629 27.48 35.5228C27.1021 35.3887 26.9351 35.1686 26.9358 34.8354C26.941 33.2287 26.9388 31.622 26.9292 30.0153C26.9273 29.6857 27.1113 29.4578 27.4256 29.2488Z" fill="white"/>
<path d="M43.894 35.1288C43.894 34.7547 43.894 34.5001 43.894 34.2418C43.8874 32.8644 43.8763 31.4875 43.8783 30.1106C43.875 29.92 43.912 29.7303 43.9876 29.5495C44.0368 29.44 44.2129 29.2828 44.3151 29.2912C44.4756 29.3043 44.6963 29.4128 44.7546 29.5259C44.8561 29.7367 44.9055 29.9613 44.8999 30.1871C44.8908 31.3723 44.8626 32.5574 44.8344 33.7425C44.822 34.3173 44.6543 34.5792 43.894 35.1288Z" fill="white"/>
<path d="M36.0023 29.2216C36.4109 29.5694 36.5439 29.8849 36.5347 30.2767C36.5066 31.4247 36.5249 32.5731 36.5223 33.7216C36.5223 34.2219 36.517 34.2219 35.9983 34.6505C35.5785 34.4053 35.4744 34.0742 35.4875 33.6676C35.5163 32.4851 35.5157 31.3016 35.4941 30.1185C35.4882 29.7497 35.7102 29.515 36.0023 29.2216Z" fill="white"/>
<path d="M41.5978 29.3321C41.8067 29.5616 41.8807 29.8277 41.8787 30.1086C41.8691 31.3628 41.8562 32.6168 41.8401 33.8704C41.8362 34.147 41.827 34.4283 41.5375 34.6562C41.0824 34.5672 40.8898 34.3471 40.8937 33.982C40.9088 32.6234 40.9055 31.2649 40.9239 29.9063C40.9298 29.5144 41.0116 29.462 41.5978 29.3321Z" fill="white"/>
<path d="M36.0107 22.8956C36.3781 23.1052 36.5346 23.3609 36.5294 23.7004C36.5209 24.9578 36.5124 26.2105 36.5346 27.4653C36.5412 27.8216 36.3074 28.0354 36.0657 28.269C35.5614 28.0343 35.471 27.7111 35.4835 27.2961C35.5208 26.0942 35.5117 24.8907 35.4946 23.6883C35.49 23.3378 35.6662 23.1021 36.0107 22.8956Z" fill="white"/>
<path d="M82.3706 28.2648C81.8702 28.0951 81.7576 27.8132 81.7608 27.4475C81.7735 26.1943 81.7691 24.9409 81.7477 23.6873C81.7418 23.3132 81.8866 23.0533 82.3686 22.9255C82.6306 23.1591 82.7683 23.4653 82.7524 23.779C82.7262 25.0147 82.712 26.2508 82.7098 27.4873C82.7091 27.7797 82.624 28.0301 82.3706 28.2648Z" fill="white"/>
<path d="M52.6284 28.2653C52.555 27.9793 52.4384 27.7309 52.4378 27.4826C52.4339 26.2252 52.4522 24.9714 52.4804 23.7161C52.4862 23.4636 52.5661 23.2126 52.6113 22.9721C53.297 22.9836 53.4057 23.0507 53.483 23.4667C53.5006 23.5709 53.5076 23.676 53.504 23.7811C53.4795 25.0357 53.4538 26.2908 53.4267 27.5465C53.4136 28.0453 53.409 28.0453 52.6284 28.2653Z" fill="white"/>
<path d="M41.5558 28.1957C40.9356 28.0348 40.9133 28.0354 40.912 27.6131C40.9068 26.2194 40.931 24.8258 40.9159 23.4327C40.912 23.0659 41.2545 23.0418 41.5276 22.8768C41.8092 23.1262 41.861 23.3939 41.8623 23.671C41.8662 24.9431 41.8675 26.2149 41.8662 27.4863C41.8669 27.7551 41.7857 27.9976 41.5558 28.1957Z" fill="white"/>
<path d="M44.0079 22.4959C44.4506 22.8485 44.8808 23.1707 44.875 23.7125C44.8592 25.0171 44.8446 26.322 44.8311 27.6273C44.8311 27.732 44.856 27.8641 44.7885 27.9327C44.6647 28.0574 44.4964 28.1837 44.3157 28.2282C44.2318 28.2486 44.0373 28.0962 43.962 27.9903C43.8826 27.8671 43.8436 27.7297 43.8487 27.5911C43.8644 25.9381 43.8913 24.2851 43.9175 22.6321C43.9149 22.6044 43.9496 22.5771 44.0079 22.4959Z" fill="white"/>
<path d="M74.3956 29.2986C74.7885 29.45 74.985 29.6653 74.9804 29.9986C74.9693 31.3251 74.9562 32.6517 74.9686 33.9804C74.9686 34.312 74.7394 34.4839 74.4264 34.6704C74.2934 34.5714 74.1884 34.4508 74.1184 34.3168C74.0484 34.1827 74.0149 34.0382 74.0203 33.8929C74.0302 32.6187 74.0387 31.3445 74.0308 30.0682C74.0295 29.7696 74.1723 29.5401 74.3956 29.2986Z" fill="white"/>
<path d="M74.414 28.2775C74.1259 27.9841 73.9883 27.6907 73.9969 27.3208C74.0244 26.1383 74.0152 24.9542 73.9969 23.7712C73.9869 23.4537 74.1209 23.144 74.3741 22.8994C74.8633 23.0481 75.0218 23.3185 75.012 23.7088C74.9805 24.9788 74.9655 26.2492 74.9668 27.5199C74.9707 27.873 74.7998 28.1061 74.414 28.2775Z" fill="white"/>
<path d="M53.3607 34.3964L52.7713 34.6515C52.4582 34.4142 52.4654 34.0946 52.4641 33.7923C52.4576 32.538 52.463 31.2839 52.4805 30.03C52.4805 29.7963 52.5774 29.5631 52.6285 29.3347C53.2421 29.3944 53.3358 29.4526 53.4183 29.7926C53.4313 29.8444 53.4376 29.897 53.4373 29.9498C53.4294 31.3955 53.4203 32.841 53.4098 34.2864C53.4001 34.3247 53.3836 34.3618 53.3607 34.3964Z" fill="white"/>
<path d="M49.7193 34.7045C49.3781 34.4221 49.2314 34.1496 49.2412 33.7933C49.2752 32.5579 49.2779 31.322 49.2831 30.086C49.2831 29.7795 49.3486 29.4992 49.6453 29.2477C49.9655 29.2362 50.0454 29.4573 50.1456 29.6323C50.2059 29.7371 50.2111 29.8696 50.2111 29.9902C50.2111 31.2958 50.2 32.6014 50.2111 33.907C50.2131 34.2313 50.0611 34.4687 49.7193 34.7045Z" fill="white"/>
<path d="M58.3182 28.3073C57.8866 27.9626 57.7812 27.6079 57.7943 27.1845C57.8388 26.0193 57.8414 24.8525 57.8388 23.6863C57.8388 23.3656 57.956 23.1183 58.2658 22.915C58.6587 23.0691 58.8074 23.2886 58.8035 23.6265C58.7884 24.9316 58.7904 26.2378 58.8179 27.5429C58.8284 27.8861 58.5972 28.0752 58.3182 28.3073Z" fill="white"/>
<path d="M64.8032 22.9386C65.2669 23.0015 65.43 23.2341 65.426 23.5705C65.4097 24.9327 65.3972 26.2949 65.3697 27.6571C65.3644 27.7938 65.3058 27.9257 65.2021 28.0343C64.9597 28.2711 64.7083 28.2376 64.5812 27.9515C64.4907 27.7586 64.4405 27.555 64.4325 27.349C64.4253 26.144 64.4397 24.939 64.443 23.7339C64.441 23.4321 64.4686 23.1429 64.8032 22.9386Z" fill="white"/>
<path d="M49.7481 22.8611C50.0677 23.0806 50.198 23.3185 50.1974 23.6155C50.1974 24.9369 50.1934 26.2582 50.2098 27.5796C50.2137 27.9097 50.0684 28.1454 49.7036 28.3236C49.4075 28.1271 49.2301 27.9044 49.2373 27.5754C49.2654 26.2891 49.27 25.0029 49.2818 23.7167C49.2851 23.3939 49.3552 23.0953 49.7481 22.8611Z" fill="white"/>
<path d="M32.9523 28.2764C32.4828 28.1669 32.3217 27.9563 32.3275 27.6057C32.3507 26.2655 32.3566 24.9253 32.3452 23.5851C32.3413 23.2299 32.5194 23.0298 32.9477 22.9234C33.215 23.1068 33.2523 23.3651 33.2536 23.6213C33.2634 24.9269 33.2628 26.2325 33.2654 27.5376C33.2673 27.8027 33.2235 28.0558 32.9523 28.2764Z" fill="white"/>
<path d="M58.3255 34.684C57.9496 34.3985 57.8075 34.1176 57.82 33.7341C57.8586 32.549 57.8468 31.3618 57.8344 30.1761C57.8304 29.8235 57.9863 29.5411 58.2758 29.2425C58.6392 29.4143 58.8187 29.6459 58.818 29.9645C58.818 31.3078 58.8036 32.6506 58.8141 33.994C58.8167 34.2979 58.5744 34.4582 58.3255 34.684Z" fill="white"/>
<path d="M44.4362 21.8939H45.3321L48.2792 21.8908C48.4321 21.8849 48.5854 21.8886 48.7376 21.9018C49.05 21.9411 49.3271 22.2229 49.3087 22.4582C49.3029 22.5826 49.2375 22.7004 49.126 22.7873C49.0146 22.8742 48.8657 22.9235 48.7101 22.925C47.6197 22.9412 46.5286 22.9355 45.4356 22.925C45.3081 22.9203 45.1878 22.8762 45.1003 22.8019C44.8383 22.5504 44.6045 22.2811 44.3602 22.0186L44.4362 21.8939Z" fill="white"/>
<path d="M27.4556 22.8956C27.7785 23.1738 27.9664 23.4426 27.954 23.8308C27.9167 24.9835 27.914 26.1361 27.9376 27.2888C27.9455 27.6812 27.8276 27.9987 27.4556 28.2743C27.0443 28.1024 26.9258 27.8305 26.9317 27.4695C26.9491 26.247 26.9491 25.0254 26.9317 23.8046C26.9251 23.4468 27.0306 23.1576 27.4556 22.8956Z" fill="white"/>
<path d="M87.2063 31.9177C87.2063 31.2544 87.1978 30.5917 87.2096 29.9268C87.2174 29.4841 87.3347 29.3389 87.6392 29.3243C87.9339 29.3101 88.0871 29.4715 88.0898 29.9079C88.0983 31.2518 88.0852 32.5952 88.074 33.939C88.0804 34.0787 88.0519 34.218 87.9902 34.3487C87.9385 34.4425 87.797 34.5583 87.685 34.5636C87.573 34.5688 87.372 34.4902 87.3222 34.4064C87.2379 34.2484 87.1951 34.0783 87.1965 33.9065C87.1834 33.2438 87.1906 32.5805 87.1906 31.9156L87.2063 31.9177Z" fill="white"/>
<path d="M44.2921 35.6177C44.6045 35.2771 44.8429 34.9889 45.1219 34.7312C45.1998 34.6583 45.3976 34.6468 45.5417 34.6442C46.5459 34.6257 47.5501 34.6133 48.5543 34.607C48.8961 34.607 49.2806 34.8422 49.331 35.0696C49.3755 35.274 49.0985 35.5464 48.7481 35.6302C48.643 35.6535 48.5343 35.6648 48.4252 35.6638C47.1814 35.67 45.937 35.6739 44.6923 35.6753C44.6091 35.6753 44.5266 35.6522 44.2921 35.6177Z" fill="white"/>
<path d="M55.5998 35.6879C55.1001 35.6879 54.5978 35.7099 54.1001 35.6816C53.5329 35.6491 53.2998 35.2514 53.5683 34.8564C53.675 34.6992 53.8067 34.6311 54.0319 34.6306C55.0536 34.6306 56.0753 34.617 57.0969 34.6122C57.4833 34.6122 57.8547 34.8501 57.8881 35.111C57.9188 35.3531 57.5606 35.6596 57.1677 35.6763C56.6477 35.6983 56.1244 35.6821 55.6024 35.6821L55.5998 35.6879Z" fill="white"/>
<path d="M87.209 22.4267C87.0282 22.8281 86.6785 22.9507 86.184 22.9407C85.3372 22.9218 84.4885 22.9381 83.641 22.9381C83.5097 22.9432 83.3782 22.9381 83.2481 22.9229C82.9383 22.8747 82.6914 22.6337 82.7071 22.4115C82.7268 22.1291 82.9599 21.919 83.3234 21.9091C83.9128 21.8923 84.497 21.9018 85.0838 21.9012C85.4538 21.9012 85.8252 21.9211 86.1926 21.8981C86.6949 21.8672 87.0354 22.005 87.209 22.4267Z" fill="white"/>
<path d="M87.2274 28.7547C87.0545 29.1702 86.748 29.319 86.2673 29.309C85.3766 29.2902 84.4853 29.3007 83.5946 29.2965C83.4849 29.2979 83.3753 29.2912 83.2671 29.2766C82.9063 29.2242 82.6712 29.0335 82.6692 28.805C82.6672 28.5766 83.0242 28.2764 83.3483 28.2711C83.9784 28.2612 84.6084 28.2711 85.2391 28.2711H86.82C86.9615 28.4378 87.0918 28.5928 87.2274 28.7547Z" fill="white"/>
<path d="M44.7937 28.7977C44.9247 28.6405 45.0668 28.4676 45.241 28.2575C46.3707 28.2575 47.5247 28.2533 48.6786 28.2575C48.9982 28.2575 49.3506 28.5499 49.3584 28.7841C49.3663 28.9937 49.1037 29.2284 48.7756 29.2797C48.6022 29.3009 48.4268 29.3092 48.2516 29.3043C47.4657 29.3043 46.6798 29.2876 45.8939 29.3117C45.3831 29.3305 45.0039 29.2169 44.7937 28.7977Z" fill="white"/>
<path d="M74.9399 22.4613C75.086 22.0385 75.4056 21.8624 75.9878 21.8907C76.8136 21.9311 77.6447 21.8986 78.4765 21.9002C78.6277 21.9002 78.7902 21.8881 78.9296 21.9258C79.2204 22.0034 79.4051 22.1752 79.4208 22.4283C79.4352 22.6609 79.1838 22.8742 78.8484 22.9208C78.6964 22.9361 78.5431 22.9413 78.39 22.9365C77.6041 22.9391 76.8182 22.9145 76.0323 22.9506C75.5091 22.9747 75.158 22.8432 74.9399 22.4613Z" fill="white"/>
<path d="M30.1407 21.8954C30.6424 21.8954 31.1434 21.8891 31.647 21.8954C31.9712 21.9012 32.353 22.1757 32.372 22.3953C32.391 22.6148 32.019 22.9166 31.6804 22.9218C30.6561 22.9365 29.6319 22.9417 28.6076 22.9312C28.1943 22.927 27.8931 22.6934 27.8911 22.4351C27.8911 22.1501 28.1976 21.9201 28.639 21.9085C29.14 21.896 29.6417 21.9085 30.1453 21.9085L30.1407 21.8954Z" fill="white"/>
<path d="M30.1683 28.2528C30.6693 28.2528 31.1703 28.2486 31.6714 28.2528C32.0257 28.2564 32.3492 28.4906 32.3793 28.75C32.4081 28.9989 32.0997 29.2865 31.7244 29.2933C30.6765 29.3122 29.6287 29.3268 28.5867 29.2933C28.3575 29.2854 28.0838 29.0921 27.9318 28.9265C27.7275 28.7044 28.1578 28.2895 28.6011 28.2769C29.1251 28.2622 29.649 28.2737 30.1729 28.2737L30.1683 28.2528Z" fill="white"/>
<path d="M38.7496 34.6038H40.1858C40.531 34.6038 40.9311 34.8569 40.9671 35.1021C40.9972 35.3043 40.6285 35.6438 40.2978 35.6512C39.2539 35.6758 38.2086 35.6873 37.1641 35.6753C36.8052 35.6711 36.4437 35.3609 36.4574 35.1471C36.4699 34.915 36.8766 34.6468 37.2479 34.6415C37.7482 34.6347 38.2492 34.6415 38.7496 34.6415V34.6038Z" fill="white"/>
<path d="M53.3828 22.4346L53.783 21.8939C54.9179 21.8939 56.0476 21.885 57.1767 21.8986C57.5913 21.9039 57.8519 22.1255 57.8624 22.4121C57.8729 22.6987 57.6201 22.925 57.1996 22.9318C56.155 22.9486 55.1105 22.9491 54.0665 22.9423C53.7384 22.9402 53.7384 22.9203 53.3828 22.4346Z" fill="white"/>
<path d="M40.5159 21.8949L40.9546 22.3717C40.6835 22.9197 40.6599 22.9349 39.9775 22.9365C39.1517 22.9365 38.3252 22.9365 37.4993 22.9365C37.3683 22.9404 37.2371 22.938 37.1064 22.9292C36.7403 22.892 36.4436 22.6615 36.4607 22.4372C36.479 22.1941 36.8215 21.9018 37.1372 21.8991C38.2682 21.8897 39.3973 21.8949 40.5159 21.8949Z" fill="white"/>
<path d="M77.0808 35.6984C76.6223 35.6984 76.1639 35.69 75.7055 35.6984C75.3322 35.7078 75.1593 35.5092 75.008 35.2944C74.8567 35.0796 75.0695 34.9203 75.2182 34.7873C75.3171 34.6987 75.5155 34.6442 75.6714 34.6416C76.6538 34.6248 77.6361 34.6264 78.6185 34.6233C78.6841 34.6205 78.7499 34.6228 78.815 34.6301C79.0979 34.6715 79.4234 34.9135 79.4548 35.1016C79.4895 35.3039 79.2583 35.5354 78.908 35.6214C78.7395 35.6573 78.5656 35.6749 78.3912 35.6737C77.9551 35.68 77.5189 35.6737 77.0814 35.6737L77.0808 35.6984Z" fill="white"/>
<path d="M84.9692 34.6091C85.4493 34.6091 85.9286 34.6091 86.41 34.6091C86.8075 34.6091 87.1808 34.8454 87.1959 35.0995C87.207 35.3452 86.8344 35.6371 86.4519 35.6481C85.8625 35.6648 85.2731 35.6633 84.6837 35.6612C84.2049 35.6612 83.719 35.6816 83.2488 35.625C82.6947 35.559 82.5054 35.1194 82.8807 34.8156C82.9999 34.7192 83.2226 34.6699 83.4046 34.6631C83.9286 34.6432 84.4525 34.6563 84.9764 34.6563L84.9692 34.6091Z" fill="white"/>
<path d="M62.8143 22.9381C62.4869 22.9381 62.1594 22.9512 61.832 22.9344C61.4515 22.915 61.2085 22.7128 61.1987 22.443C61.1964 22.3028 61.2623 22.1675 61.3824 22.0654C61.5025 21.9634 61.6674 21.9026 61.8424 21.896C62.5177 21.8834 63.1942 21.8839 63.8694 21.9044C64.2224 21.9148 64.4431 22.1449 64.4457 22.433C64.4457 22.7322 64.2447 22.9197 63.8563 22.9365C63.5085 22.9517 63.1588 22.9397 62.8084 22.9397L62.8143 22.9381Z" fill="white"/>
<path d="M68.7071 22.4513C68.5276 22.8521 68.1556 22.9789 67.6396 22.9491C67.2281 22.9257 66.815 22.9269 66.4038 22.9527C65.8798 22.9852 65.5249 22.8448 65.371 22.4288C65.536 21.9918 65.9093 21.8478 66.4614 21.8907C66.851 21.9182 67.2428 21.9182 67.6324 21.8907C68.1504 21.8603 68.5276 21.984 68.7071 22.4513Z" fill="white"/>
</svg>
